<svg width="606" height="606" viewBox="0 0 606 606" fill="none" xmlns="http://www.w3.org/2000/svg">
<path d="M268.5 101C129.12 101 16 214.12 16 353.5C16 492.88 129.12 606 268.5 606C407.88 606 521 492.88 521 353.5C521 214.12 407.88 101 268.5 101ZM200.072 461.823L109.425 371.175C99.5775 361.327 99.5775 345.42 109.425 335.572C119.272 325.725 135.18 325.725 145.028 335.572L218 408.293L391.72 234.572C401.567 224.725 417.475 224.725 427.323 234.572C437.17 244.42 437.17 260.327 427.323 270.175L235.675 461.823C226.08 471.67 209.92 471.67 200.072 461.823Z" fill="url(#paint0_linear_1101_5)"/>
<defs>
<linearGradient id="paint0_linear_1101_5" x1="116.5" y1="159" x2="442" y2="578" gradientUnits="userSpaceOnUse">
<stop stop-color="#EE8030"/>
<stop offset="0.822115" stop-color="#EE8030" stop-opacity="0.54"/>
</linearGradient>
</defs>
</svg>
